<?xml version="1.0" encoding="UTF-8" standalone="no"?>
<!-- Created with Inkscape (http://www.inkscape.org/) -->

<svg
   version="1.1"
   id="svg1"
   width="128"
   height="128"
   viewBox="0 0 128 128"
   sodipodi:docname="source.svg"
   inkscape:version="1.3.2 (091e20ef0f, 2023-11-25)"
   xml:space="preserve"
   xmlns:inkscape="http://www.inkscape.org/namespaces/inkscape"
   xmlns:sodipodi="http://sodipodi.sourceforge.net/DTD/sodipodi-0.dtd"
   xmlns="http://www.w3.org/2000/svg"
   xmlns:svg="http://www.w3.org/2000/svg"><defs
     id="defs1" /><sodipodi:namedview
     id="namedview1"
     pagecolor="#ffffff"
     bordercolor="#000000"
     borderopacity="0.25"
     inkscape:showpageshadow="2"
     inkscape:pageopacity="0.0"
     inkscape:pagecheckerboard="0"
     inkscape:deskcolor="#d1d1d1"
     inkscape:zoom="5.2173014"
     inkscape:cx="79.063862"
     inkscape:cy="70.822054"
     inkscape:window-width="1920"
     inkscape:window-height="1043"
     inkscape:window-x="0"
     inkscape:window-y="0"
     inkscape:window-maximized="1"
     inkscape:current-layer="svg1" /><g
     id="g8"
     style="display:inline"
     transform="matrix(0.15532883,0,0,0.15532883,13.455483,-4.5305544)"><path
       d="m 82.634766,222.01562 c -3.683711,0.22076 -6.659022,1.12506 -8.869141,2.7461 -4.838508,3.54886 -8.427088,10.62597 -8.429688,16.625 -0.01781,40.58226 85.576063,153.35079 176.943363,233.11914 l 18.90625,16.50586 -20.57813,9.70312 c -11.31717,5.33744 -24.33388,11.79799 -28.92578,14.35547 -4.5919,2.55749 -12.18372,6.25525 -16.87109,8.21875 -10.51664,4.40536 -10.93798,4.0863 -14.8086,-11.19531 -4.42302,-17.46259 -8.44938,-23.20508 -16.26953,-23.20508 -5.27506,0 -12.04959,7.16403 -17.60547,18.61719 -2.08853,4.3054 -3.92131,7.97757 -4.07226,8.16016 -0.15095,0.1826 -9.22446,-1.53102 -20.16406,-3.80665 -16.33923,-3.39884 -21.968683,-4.02309 -31.533208,-3.5 -17.412179,0.95231 -22.70833,5.72713 -14.691406,13.24805 8.763911,8.2217 44.115464,26.93145 53.974604,28.56641 l 4.97266,0.82617 -0.81836,11.55078 c -0.66165,9.32131 -0.39377,12.37959 1.39258,15.83399 2.18177,4.2191 2.35517,4.28111 11.84766,4.2871 5.29783,0.003 17.88834,-1.59504 27.98046,-3.55273 l 18.34961,-3.56055 12.56836,2.88868 c 15.30787,3.51633 29.48776,3.81086 33.92188,0.70507 2.5958,-1.81816 3.00122,-3.02173 2.4375,-7.22461 -0.80528,-6.00375 -3.61948,-5.01426 29.70703,-10.45312 61.81096,-10.08749 78.74038,-10.51879 96.66602,-2.46094 11.51374,5.17561 31.35649,11.07155 66.03906,19.62305 43.20981,10.65401 77.31873,16.51619 108.6289,18.66992 25.93754,1.78416 51.7722,-0.69131 57.58985,-5.51953 2.88958,-2.39814 1.97404,-8.40088 -2.14844,-14.0918 -4.63057,-6.3923 -21.84926,-20.33809 -40.03125,-32.42187 l -13.12891,-8.72657 13.52539,-6.82812 c 7.43928,-3.75631 14.8754,-7.22018 16.5254,-7.69727 3.05722,-0.88397 3.90332,-2.63901 1.875,-3.89257 -0.61937,-0.3828 -4.07069,0.40199 -7.66797,1.74609 -3.5973,1.3441 -8.64037,2.82189 -11.20703,3.2832 L 554,523.99805 l 0.37109,-42.17774 c 0.30837,-35.10436 0.0453,-42.67011 -1.56836,-45.13281 -1.83886,-2.80646 -1.51597,-3.37366 6.29493,-11.00586 5.95687,-5.8206 9.57684,-8.28169 13.08593,-8.89648 5.73731,-1.00517 13.62889,-6.00028 14.20508,-8.99219 0.4207,-2.18452 -3.17551,-3.74169 -8.72265,-3.77539 -2.09331,-0.0127 -3,-0.81503 -3,-2.6543 0,-5.63935 -10.35748,-9.26618 -27,-9.45508 -9.67713,-0.10984 -10.33305,-0.29994 -10.34375,-3.01172 -0.0208,-5.27423 -41.94602,-78.81485 -48.01954,-84.23046 L 486.3125,302 l 0.96094,3.33398 c 1.85263,6.42437 18.49734,44.86056 28.23242,65.19727 5.40564,11.29246 9.82812,20.64282 9.82812,20.77734 0,0.13452 -3.17251,-0.0184 -7.04882,-0.33984 -9.46512,-0.78492 -20.8423,3.12907 -72.23829,24.85937 l -41.0664,17.36329 -11.06836,-8.92774 c -6.08797,-4.91121 -11.1099,-9.23882 -11.1582,-9.61523 -0.0483,-0.37641 5.46277,-3.63298 12.24609,-7.23633 6.78333,-3.60335 12.63334,-6.93265 13,-7.39844 0.36667,-0.46579 4.11732,-2.22836 8.33398,-3.91797 4.21666,-1.6896 7.66602,-3.90315 7.66602,-4.91797 0,-2.46955 -2.01545,-2.32755 -9.97461,0.70313 C 405.74756,395.03288 374.0577,404 371.19531,404 370.04078,404 354.59908,392.0977 336.88086,377.55078 220.05403,281.63428 118.24397,219.88165 82.634766,222.01562 Z m 11.93164,7.99415 c 5.997834,0.1334 12.939714,1.22855 18.748044,3.23828 21.4988,7.43873 49.61905,22.39103 80.01953,42.54882 37.71295,25.0065 108.02739,79.8439 104.91602,81.82227 -0.87109,0.55389 -2.18268,1.01349 -2.91602,1.02148 -0.73332,0.008 -13.03401,-9.6285 -27.33398,-21.41406 -70.3586,-57.98721 -123.23797,-92.49143 -154.04492,-100.51562 -20.005858,-5.21086 -29.85867,0.61808 -28.308596,16.75 0.71112,7.40076 -0.154603,6.89323 -4.392578,-2.57227 -3.477703,-7.76743 -3.388103,-15.08747 0.226563,-18.34961 2.033643,-1.8353 7.088103,-2.6627 13.085937,-2.52929 z m -19.701172,21.11914 c 0.309243,-0.58635 1.769048,1.97075 4.314453,7.80078 7.144775,16.36445 18.064436,31.49253 32.699223,45.30273 10.32801,9.74609 13.48716,13.58741 14.61523,17.76758 0.79159,2.93332 2.38907,6.68399 3.54883,8.33398 2.58074,3.67164 1.4989,3.73839 -8.70508,0.53907 -7.06434,-2.21494 -7.65318,-2.77768 -16.30859,-15.58594 C 93.877161,298.7842 81.152683,274.28036 77.458984,262.19336 75.397169,255.44642 74.555991,251.71525 74.865234,251.12891 Z M 106.81836,274 l 14.19336,15.33398 c 7.80591,8.43333 23.67016,24.95553 35.25586,36.7168 11.58568,11.76127 21.0664,21.81195 21.0664,22.33399 0,0.92182 -3.93771,1.04394 -8,0.24804 -1.09999,-0.21552 -6.35047,-1.10064 -11.66796,-1.96679 -9.35731,-1.52421 -9.88215,-1.81585 -16.31836,-9.03711 -3.65752,-4.10366 -7.61763,-10.19866 -8.79883,-13.54493 -4.51068,-12.77842 -6.42564,-16.15986 -12.2461,-21.61523 -6.33805,-5.94051 -9.94655,-12.61873 -12.14843,-22.48438 z m 15.20508,63.01172 c 1.05315,-0.0475 2.89289,0.14064 5.64844,0.56055 4.21396,0.64213 7.96146,1.30175 8.32812,1.46484 0.36667,0.16308 6.32768,6.14689 13.24609,13.29687 l 12.57813,13 -7.91211,-0.0859 c -4.35175,-0.0465 -9.1956,-0.60147 -10.76367,-1.23438 -2.26616,-0.91468 -11.39957,-11.74285 -22.05469,-26.14453 -0.38956,-0.52654 -0.12346,-0.80995 0.92969,-0.85742 z m 35.50195,15.6543 h 12.99609 12.9961 l 9.24023,8.52148 c 5.08271,4.68662 16.59286,14.52229 25.57617,21.85547 8.98332,7.33318 16.33204,13.54704 16.33204,13.81055 0,0.80501 -16.23734,0.20972 -23.5918,-0.86524 -3.80956,-0.55683 -8.61088,-2.33357 -10.66797,-3.94922 -5.14062,-4.03747 -36.39993,-32.37266 -39.97656,-36.23633 z M 305.73242,364 c 3.03277,0 6.26758,2.20272 6.26758,4.26758 0,1.66276 -5.94649,1.25078 -7.73242,-0.53516 C 301.83229,365.29714 302.34042,364 305.73242,364 Z m -145.32031,5.4668 c 6.22291,-0.129 6.77112,0.19171 18.66601,10.92187 6.74038,6.08036 19.00588,16.64054 27.25586,23.4668 8.24999,6.82627 15,12.65195 15,12.94531 0,0.615 -12.00264,0.53122 -14,-0.0977 -0.73332,-0.23088 -5.7562,-1.15115 -11.16211,-2.04492 -11.70732,-1.93557 -13.5601,-3.39558 -34.58007,-27.24609 -15.73137,-17.84974 -15.71772,-17.64394 -1.17969,-17.94531 z m 158.09961,5.91601 c 3.91891,-1.24382 44.1543,31.82625 44.1543,36.29102 0,4.93568 3.73666,10.87585 7.42187,11.80078 1.85462,0.46522 5.77289,0.46138 8.70703,-0.008 4.39693,-0.7031 5.26339,-0.48684 4.93555,1.22851 -0.23127,1.21008 4.33371,6.44367 10.90625,12.50196 l 11.30469,10.41992 -4.23829,2.1914 c -2.33096,1.20539 -4.41696,2.17033 -4.63671,2.14453 -0.21975,-0.0258 -5.49911,-4.76966 -11.73243,-10.54296 -8.47768,-7.85203 -12.54268,-10.6931 -16.13281,-11.27149 -7.00359,-1.12831 -11.71536,-5.37805 -12.68555,-11.44531 -0.7228,-4.52021 -3.08479,-7.17109 -20.33398,-22.81641 -10.7337,-9.73566 -19.69817,-18.13959 -19.92187,-18.67578 -0.2237,-0.5362 0.78971,-1.35426 2.25195,-1.81836 z m 196.46484,19.17578 c 2.99076,-0.26307 5.35553,0.16119 7.36328,1.24805 2.69908,1.46108 2.92908,2.33533 2.25391,8.57617 -0.67204,6.21182 0.95539,15.49665 3.91211,22.31446 0.60233,1.38888 -0.45503,2.81782 -3.3457,4.52539 -2.32408,1.37286 -8.48629,6.53037 -13.69336,11.46093 -10.25927,9.71446 -18.91852,15.66459 -33.4668,22.99414 -5.13332,2.58622 -12.54311,6.86628 -16.4668,9.51172 -3.92369,2.64546 -7.30185,4.81055 -7.50586,4.81055 -0.20401,0 -1.10295,-1.76875 -1.99804,-3.92969 -1.38064,-3.33316 -1.19523,-5.22837 1.22461,-12.5 3.44001,-10.33723 9.72338,-21.02584 19.39648,-32.99804 7.24612,-8.96838 10.7566,-12.18598 19.34961,-17.73633 3.98619,-2.57476 4.6464,-3.71777 4.52344,-7.83399 -0.13958,-4.67271 0.0816,-4.90233 7.33203,-7.57031 4.51221,-1.66037 8.13033,-2.60997 11.12109,-2.87305 z m 32.67578,0.0508 c 4.39148,0.0643 9.58399,0.9799 13.40235,2.7129 5.67545,2.57583 5.70692,2.62759 3.78125,6.30468 -2.76833,5.28615 -9.5973,11.45696 -18.75782,16.95313 -4.35685,2.61404 -8.61283,4.7539 -9.45898,4.7539 -4.25311,0 -8.61914,-9.16221 -8.61914,-18.08789 0,-5.55691 0.22028,-5.91439 3.66602,-5.93359 4.32478,-0.0241 6.21293,-1.12586 7.38867,-4.3125 0.61544,-1.66807 4.20618,-2.45493 8.59765,-2.39063 z m -307.55078,5.75977 11.61524,7.70898 c 14.9311,9.91135 32.5514,18.73132 47.28906,23.67188 9.01836,3.02326 11.26695,4.25033 9.89062,5.39258 -4.55086,3.77688 -9.15751,15.09678 -9.33789,22.94336 -0.10006,4.3525 -0.49277,7.89534 -0.87109,7.87304 -0.37833,-0.0223 -3.68685,-2.2416 -7.35352,-4.93359 -34.58169,-25.38921 -45.13482,-33.35947 -61.17968,-46.2051 L 211.64258,402 l 14.23047,-0.81641 z m 245.66797,1.06641 c 1.97489,-0.0445 3.99005,0.61134 5.93359,1.97265 2.92458,2.04845 3.90903,5.22814 1.9629,6.33789 -0.55,0.31363 -3.20693,0.96837 -5.90625,1.45508 -4.06628,0.73317 -5.39455,0.3635 -7.74024,-2.1543 l -2.83008,-3.03906 2.88672,-2.33789 c 1.78488,-1.4453 3.71847,-2.18988 5.69336,-2.23437 z m -14.41992,7.79492 c 3.13451,0.41779 5.95122,1.89954 6.68359,4.20703 0.4825,1.52023 0.5517,3.08893 0.1543,3.48633 -0.3974,0.3974 -3.30422,1.01355 -6.45898,1.36914 -4.66808,0.52616 -6.21369,0.11563 -8.3086,-2.19922 -2.22998,-2.46411 -2.31947,-3.09096 -0.66406,-4.69336 2.00667,-1.94241 5.45924,-2.58772 8.59375,-2.16992 z m -17.63281,6.87305 c 0.92862,0.0423 1.90667,0.18124 2.91211,0.43359 3.20748,0.80502 6.97846,5.63286 5.53125,7.08008 -0.39701,0.39701 -3.17266,1.16906 -6.16797,1.71679 -4.23216,0.7739 -6.07489,0.48536 -8.27344,-1.29492 -4.65701,-3.77102 -0.50233,-8.23168 5.99805,-7.93554 z m 22.33593,4.07617 -2.57031,3.57812 c -4.78563,6.65618 -10.33058,10.95967 -20.22851,15.70313 -5.42494,2.59983 -12.72803,6.78593 -16.22852,9.30078 -3.50048,2.51485 -6.61258,4.57226 -6.91602,4.57226 -0.8254,0 -15.44335,-16.32795 -15.44335,-17.25 0,-0.4376 4.80971,-2.50531 10.6875,-4.59375 9.39499,-3.33813 11.17063,-3.59701 14.6914,-2.13867 5.54346,2.29619 12.30619,1.09981 25.08399,-4.4375 z m -256.20117,0.8164 c 8.03507,0.13542 10.81446,0.95971 10.81446,2.79688 0,0.54639 -5.24937,2.0541 -11.66602,3.35156 -6.41666,1.29746 -12.56602,2.59114 -13.66602,2.87305 -1.09999,0.28191 -4.31034,-1.52192 -7.13281,-4.00781 l -5.13086,-4.51954 16.90235,-0.41211 c 3.93776,-0.0958 7.20055,-0.12717 9.8789,-0.082 z m 14.38867,5.35547 25.88086,19.61719 c 14.23388,10.78991 26.06358,20.70574 26.28907,22.03516 0.30511,1.79886 -0.71801,2.64504 -4,3.30664 -2.42549,0.48894 -5.31016,1.08246 -6.41016,1.32031 -2.60187,0.56258 -19.63251,-3.38067 -30.66602,-7.10156 -7.54289,-2.54373 -10.56908,-4.71573 -23.33398,-16.74805 -8.06665,-7.60369 -14.36667,-14.08893 -14,-14.41211 0.36666,-0.32317 6.42036,-2.25953 13.45312,-4.30273 z M 332.07031,436 c 3.70098,0 8.4461,0.88731 10.54492,1.97266 4.84474,2.50531 9.38477,8.23286 9.38477,11.83789 v 2.7832 l -2.00391,-2.86133 c -2.64107,-3.77065 -10.3565,-6.21311 -16.86718,-5.33984 -6.12047,0.82093 -13.62261,6.11765 -16.47461,11.63281 -1.10574,2.13826 -2.48342,6.15782 -3.06055,8.93164 -0.81256,3.90537 -1.26126,4.49285 -1.98828,2.60156 -1.51368,-3.93779 -1.08176,-12.63546 0.85742,-17.26757 0.98789,-2.35978 4.29035,-6.54103 7.33789,-9.29102 4.85983,-4.38533 6.36772,-5 12.26953,-5 z m 124.90821,5.4707 c 0.44403,-0.10388 0.73267,-0.0792 0.82031,0.10547 0.11041,0.23264 -2.49942,5.90329 -5.80078,12.60156 l -6.00391,12.17969 -4.94336,-4.27344 -4.94336,-4.27343 4.08203,-4.95118 c 2.94403,-3.57162 13.68083,-10.6615 16.78907,-11.38867 z m 77.29101,12.86328 0.91992,10.5 c 1.6414,18.70312 4.90391,37.99359 8.17969,48.36329 1.76115,5.57499 3.37464,10.69247 3.58398,11.37304 0.20934,0.68057 -1.11979,1.63344 -2.95312,2.11719 -10.55633,2.78544 -9.55535,3.09688 -25.8457,-8.02734 -8.5599,-5.84532 -19.47447,-13.5889 -24.25391,-17.20704 l -8.68945,-6.57812 9.36328,-6.05664 c 13.9555,-9.02777 25.94606,-18.81093 33.21484,-27.09766 z m -120.81055,0.19922 12.27149,10.45117 c 12.66616,10.78824 17.42816,17.51232 16.07226,22.69727 -0.96862,3.70403 -2.68316,3.84418 -3.80468,0.31055 -1.4709,-4.6344 -7.40038,-10.6196 -17.19336,-17.35742 -5.20933,-3.58417 -10.92427,-7.67521 -12.70117,-9.08985 l -3.23243,-2.57031 4.29493,-2.2207 z m -164.45507,17.63477 c 0.72441,-0.11896 2.90158,0.44198 6.87109,1.6289 4.34981,1.30064 5.27468,1.98796 3.55859,2.64649 -3.55945,1.36589 -5.16482,1.02651 -8.58203,-1.82031 -1.84376,-1.53602 -2.57207,-2.33612 -1.84765,-2.45508 z m 36.18359,2.52539 c 1.49409,-0.0218 1.71306,2.11097 1.12695,10.97266 -1.22904,18.58261 -1.03078,18.4942 -14.875,6.67968 l -11.89453,-10.15039 11.89453,-3.73633 c 6.54184,-2.05559 12.72802,-3.75072 13.74805,-3.76562 z m 68.38086,0.9668 -0.94531,7.55468 c -0.79337,6.34996 -0.54486,8.00349 1.55078,10.36719 3.3207,3.74547 20.73013,16.64126 25.23828,18.69531 3.2797,1.49433 3.84535,1.30073 6.74414,-2.32226 4.02068,-5.02515 4.15451,-2.45725 0.17773,3.41211 -4.61716,6.81448 -3.55498,7.03257 -25,-5.16797 -18.93805,-10.77429 -24.90817,-11.65475 -42.56836,-6.2832 -12.61923,3.83828 -15.42742,4.06538 -19.85742,1.60742 l -3.08984,-1.71485 5.38476,-4.86523 c 8.71963,-7.87765 31.12226,-17.54219 47.24805,-20.38281 z m -190.99219,17.76367 c 1.90767,-0.0317 3.57976,1.54129 5.08008,4.6875 2.1798,4.57107 2.17002,4.84074 -0.20508,6.16992 -1.36568,0.76427 -4.65122,3.32714 -7.30078,5.69531 -2.64956,2.36819 -6.12673,4.99091 -7.72852,5.83008 -6.12354,3.20808 -6.59699,0.73471 -1.6582,-8.67578 4.79677,-9.13986 8.63306,-13.65415 11.8125,-13.70703 z m 101.98633,2.20703 6.5957,7.17383 c 3.62764,3.94521 7.99045,10.17666 9.69532,13.84961 l 3.0996,6.67968 -11.4414,0.89844 c -6.29301,0.49423 -14.53295,1.63693 -18.31055,2.54102 -3.7776,0.9041 -14.54846,4.21904 -23.93555,7.36523 -19.43012,6.51227 -19.33336,6.574 -11.1875,-7.14648 7.94683,-13.38524 13.46363,-17.94259 30.20313,-24.95703 z m 217.33008,5.34961 c 0.94789,0.56035 11.72697,8.51854 23.95312,17.68359 19.52822,14.63887 22.39223,17.26946 23.57032,21.64453 1.77316,6.58504 5.39595,8.51045 11.94335,6.34961 4.76176,-1.57152 5.38087,-1.40054 14.47461,4.00196 5.2249,3.10405 9.5,5.87511 9.5,6.1582 0,0.28309 -0.15065,0.47061 -0.33398,0.41601 -0.18334,-0.0546 -4.44374,-1.5371 -9.46875,-3.29296 -8.13579,-2.84285 -9.78824,-3.01835 -15.07813,-1.60352 -7.29194,1.9503 -12.06852,-0.13777 -15.11914,-6.60937 -1.49176,-3.16466 -8.68313,-8.75211 -28.29687,-21.98633 -14.46277,-9.75864 -26.31349,-18.08192 -26.33399,-18.4961 -0.0779,-1.57042 9.54395,-5.23839 11.18946,-4.26562 z m -312.73242,6.56445 c 1.26573,-0.20326 1.62416,1.20587 2.5332,6.14453 0.70643,3.83791 1.72865,8.02722 2.27148,9.31055 0.54283,1.28333 0.47221,2.28993 -0.15625,2.23633 -0.94459,-0.0805 -10.50487,-3.29255 -17.50976,-5.88281 -1.80463,-0.66732 5.98259,-8.38611 11.23828,-11.13868 0.67738,-0.35476 1.20114,-0.60216 1.62305,-0.66992 z m 54.17382,6.75977 -5.6582,6.14258 c -3.11217,3.37808 -7.85087,9.60974 -10.5293,13.84765 -2.67842,4.2379 -5.07522,7.94899 -5.32617,8.2461 -0.25094,0.29712 -7.21227,1.93987 -15.4707,3.65234 -19.87832,4.12196 -21.99699,3.96329 -12.90234,-0.97266 4.72373,-2.56372 8.6263,-5.9209 10.66796,-9.17773 2.38273,-3.8009 5.12258,-5.91327 10.55079,-8.13281 4.03333,-1.6492 12.13335,-5.38614 18,-8.30274 z m 168.1875,33.60156 7.72266,4.65039 c 6.84978,4.12471 7.36645,4.72331 4.57227,5.29883 -10.70045,2.20397 -19.39512,1.74618 -28.48633,-1.5 -13.87297,-4.95359 -13.79751,-5.1055 3.50781,-7.03516 z m 24.77539,14.25781 c 2.81148,-0.22298 5.12009,0.25141 7.94532,1.34375 8.2254,3.18027 8.7957,4.18865 2.93164,5.18164 -2.84552,0.48185 -6.07383,1.08277 -7.17383,1.33399 -2.92028,0.66694 -17.06793,-4.17142 -14.66602,-5.01563 4.83692,-1.70004 8.15142,-2.62077 10.96289,-2.84375 z m 25.07032,8.9668 c 4.11182,0.19426 9.77643,1.67103 22.04687,5.45898 10.95577,3.38211 20.51863,6.38477 21.25196,6.67383 0.73333,0.28906 -0.46602,0.52067 -2.66602,0.51367 -5.43507,-0.0177 -47.70852,-8.97315 -49.16016,-10.41406 -0.65428,-0.64947 1.41621,-1.53776 4.7461,-2.03711 1.21308,-0.18191 2.41064,-0.26006 3.78125,-0.19531 z"
       style="display:inline"
       id="path16"
       sodipodi:nodetypes="ssccccssssssssscccsccccsssssssscccssscccsssssssscccssscccsssssssssssssssssssssssssssssccsssssssccssscccssssccccssssccssssssssssssscsccscccssssssccsssssssssssssssssssssssssccsssssccccsssscccssssssssssssssccssssssccsssscccssccssssssccsssccssssssssscccccsccsssssccccccsssccccssssssscccsccsssssscccccssssssscccccsssccssssssssssscssssssssccsssssscccsssccssssssssscsss"
       inkscape:label="plane" /><path
       d="m 324.81641,61.021484 c -0.11846,0.04072 -0.21892,0.136544 -0.30664,0.283203 -0.5206,0.870349 -4.90795,8.900667 -9.75,17.845704 -18.47543,34.130819 -48.7548,83.031959 -81.75,132.027339 -10.34816,15.36625 -19.34321,28.92357 -19.98829,30.12891 -1.51045,2.8223 -2.43114,1.75134 35.46094,41.30664 l 30.79883,32.15039 7.66992,0.76953 c 4.21811,0.42362 15.05387,1.39785 24.08008,2.16602 9.02621,0.76817 18.07712,1.32447 20.11328,1.23437 l 3.70313,-0.16406 24.05859,-79.95312 24.06055,-79.95313 -8.89844,-14.37695 c -9.47954,-15.3156 -34.68434,-58.924043 -43.37695,-75.050783 -3.39697,-6.302154 -5.04579,-8.69913 -5.875,-8.414063 z"
       style="display:inline;fill:#5a0e00;stroke-width:1.08425"
       id="path15" /><path
       d="m 391.95508,174.04883 c -0.29816,-0.0124 -3.37581,13.51547 -6.83985,30.0625 -11.90574,56.87142 -34.36132,166.08728 -34.36132,167.12109 0,1.47247 7.36115,2.04103 63.42968,4.90625 60.8548,3.10984 74.27149,3.35874 74.27149,1.37891 0,-1.49113 -7.49187,-44.85512 -12.58399,-72.84375 l -2.95898,-16.26367 -7.76758,-10.30079 c -13.45668,-17.84172 -37.3218,-51.63503 -55.30469,-78.3125 -9.53781,-14.14926 -17.58659,-25.73564 -17.88476,-25.74804 z"
       style="display:inline;fill:#5a0e00;stroke-width:1.08425"
       id="path14" /><path
       d="m 111.19141,374.60742 c -1.91803,0.0912 -5.48559,3.81257 -19.763676,19.36719 -10.330691,11.25431 -25.1874,27.23687 -33.015625,35.51562 l -14.234375,15.05274 20.982422,21.50195 20.984375,21.50391 7.345703,-0.75391 c 15.577016,-1.59945 121.980866,-14.49291 122.224606,-14.81055 0.42319,-0.55147 -99.35859,-94.16689 -103.34765,-96.96093 -0.37827,-0.26495 -0.73316,-0.43705 -1.17578,-0.41602 z"
       style="display:inline;fill:#5a0e00;stroke-width:1.08425"
       id="path13" /><path
       d="m 312.25391,574.10937 -24.61133,73.85157 -24.61133,73.85156 13.3418,21.83398 c 17.17467,28.10369 29.60388,49.38886 40.17773,68.80664 4.65118,8.54142 8.83858,15.12761 9.30469,14.63672 0.46611,-0.49088 4.84885,-8.21121 9.74023,-17.15625 24.29476,-44.42862 55.88132,-95.00106 95.82227,-153.41992 6.31958,-9.2432 11.36985,-17.13766 11.22265,-17.54297 -0.36052,-0.99273 -15.86469,-13.18144 -52.60937,-41.35547 L 359.375,574.10937 h -23.56055 z"
       style="display:inline;fill:#5a0e00;stroke-width:1.08425"
       id="path12" /><path
       d="m 278.95117,604.47266 -12.07617,0.58203 c -6.64194,0.32002 -27.64937,1.29534 -46.68359,2.16797 -19.03423,0.87262 -34.72489,1.70756 -34.86719,1.85546 -0.14231,0.14791 4.35388,6.61287 9.99023,14.36524 10.90451,14.99831 35.10033,49.54467 50.68946,72.37305 5.19215,7.60328 9.82459,13.82421 10.29492,13.82421 0.88764,0 4.24707,-15.24527 15.82812,-71.82812 z"
       style="display:inline;fill:#5a0e00;stroke-width:1.08425"
       id="path11" /><path
       d="m 413.26953,589.29297 c -2.46374,-0.005 1.11745,4.40753 21.1582,26.05664 7.70943,8.32813 14.39601,15.14062 14.85743,15.14062 0.7589,0 16.76265,-21.41874 21.15625,-28.31445 l 1.80664,-2.83398 -6.26368,-1.22266 c -11.89576,-2.32132 -50.72265,-8.82217 -52.71484,-8.82617 z"
       style="display:inline;fill:#5a0e00;stroke-width:1.08425"
       id="path10" /><path
       d="m 587.92773,425.78906 -8.26367,5.32422 c -4.54551,2.92812 -9.64031,6.46117 -11.32226,7.85156 l -3.0586,2.52735 3.56641,18.06054 c 1.96178,9.93272 3.82135,18.0586 4.13086,18.0586 0.30951,0 8.00663,-7.43295 17.10547,-16.51758 l 16.54297,-16.51758 -9.34961,-9.39258 z"
       style="display:inline;fill:#5a0e00;stroke-width:1.08425"
       id="path9" /></g></svg>
